# xmcd
#
# Track frame offsets: 
#        150
#        17928
#        33121
#        45881
#        58217
#        71194
#        87917
#        105877
#        120776
#        135206
#        147823
#        164847
#        174411
#        198156
#        214377
#        229295
#        245318
#        255292
#        268214
#        281849
#        295872
#        308661
#        322953
#        338304
#
# Disc length: 4779 seconds
#
# Revision: 2
# Processed by: cddbd v1.5.2PL0 Copyright (c) Steve Scherf et al.
# Submitted via: ExactAudioCopy v1.1
#
DISCID=4c12a918
DTITLE=Various Artist - Akella Presents - vol.97 - Rockin' Rollers Bl
DTITLE=ues  CD2
DYEAR=2016
DGENRE=Blues
TTITLE0=Too Slim and The Taildraggers - Big Legs
TTITLE1=Albert Castiglia - What The Hell Was I Thinking
TTITLE2=The Rich Fabec Band - C'mon out Tonight
TTITLE3=Lil' Ed And The Blues Imperials - If You Were Mine
TTITLE4=Mick Ralphs Blues Band - Nothing's Gonna Stop Me
TTITLE5=Johnny Neel - Johnny Needs a Shot
TTITLE6=Pete Cornelius And The DeVilles - Help Cat Roar
TTITLE7=Lisa Mann - Doghouse
TTITLE8=Bob Margolin with Mike Sponza Band - It's Hard to Be On the Ro
TTITLE8=ad
TTITLE9=Jeremiah Johnson Band - Get In The Middle
TTITLE10=The Mike Eldred Trio - Hunder Dollar Bill
TTITLE11=Jeff Gates Band - Layin' In the Bed
TTITLE12=Brent Johnson - The Ticket
TTITLE13=Texas Slim - Three Bridges Blues
TTITLE14=Sonny Landreth - Gone Pecan
TTITLE15=Alex Jenkins and The Bombers - Good Bye Baby Blues
TTITLE16=The Juke Hounds - Bang Bang
TTITLE17=The Pumps - The One After 909
TTITLE18=Eddie Martin - Let's Get Together
TTITLE19=Mama's Boys - Blues Don't Like No One
TTITLE20=Kathi McDonald and Rich Kirch - Shake You Money Maker
TTITLE21=Nine Below Zero - Checkin' On My Baby
TTITLE22=Mississippi Shakedown - Deeper In Debt
TTITLE23=Lucky Peterson - Boogie-Woogie Blues Joint Party
EXTD=
EXTT0=
EXTT1=
EXTT2=
EXTT3=
EXTT4=
EXTT5=
EXTT6=
EXTT7=
EXTT8=
EXTT9=
EXTT10=
EXTT11=
EXTT12=
EXTT13=
EXTT14=
EXTT15=
EXTT16=
EXTT17=
EXTT18=
EXTT19=
EXTT20=
EXTT21=
EXTT22=
EXTT23=
PLAYORDER=
